# xmcd
#
# Track frame offsets: 
#        150
#        23297
#        43407
#        71399
#        90601
#        105671
#        121768
#        140745
#        170365
#        190212
#
# Disc length: 2864 seconds
#
# Revision: 0
# Processed by: cddbd v1.5.2PL0 Copyright (c) Steve Scherf et al.
# Submitted via: ExactAudioCopy v1.0b1
#
DISCID=7f0b2e0a
DTITLE=Mr. Black and Blue - Long Road Home
DYEAR=2012
DGENRE=Blues Rock
TTITLE0=Long Road Home
TTITLE1=Dreamcatcher
TTITLE2=Killing Floor
TTITLE3=Come Back Again
TTITLE4=Heartbeat
TTITLE5=Fever
TTITLE6=Broken Heart Blues
TTITLE7=Smokestacked
TTITLE8=I'll Never Leave Alexandra
TTITLE9=Dance In The Rain
EXTD=
EXTT0=
EXTT1=
EXTT2=
EXTT3=
EXTT4=
EXTT5=
EXTT6=
EXTT7=
EXTT8=
EXTT9=
PLAYORDER=
